<mxfile host="app.diagrams.net" agent="Mozilla/5.0 (X11; Ubuntu; Linux x86_64; rv:133.0) Gecko/20100101 Firefox/133.0" version="26.0.5">
  <diagram id="C5RBs43oDa-KdzZeNtuy" name="Page-1">
    <mxGraphModel dx="1434" dy="1911" grid="1" gridSize="10" guides="1" tooltips="1" connect="1" arrows="1" fold="1" page="1" pageScale="1" pageWidth="827" pageHeight="1169" math="0" shadow="0">
      <root>
        <mxCell id="WIyWlLk6GJQsqaUBKTNV-0" />
        <mxCell id="WIyWlLk6GJQsqaUBKTNV-1" parent="WIyWlLk6GJQsqaUBKTNV-0" />
        <mxCell id="pB7Ged0uvk6aYIBunuPW-0" value="Cliente" style="shape=umlActor;verticalLabelPosition=bottom;verticalAlign=top;html=1;outlineConnect=0;" vertex="1" parent="WIyWlLk6GJQsqaUBKTNV-1">
          <mxGeometry x="60" y="130" width="30" height="60" as="geometry" />
        </mxCell>
        <mxCell id="pB7Ged0uvk6aYIBunuPW-5" value="Home" style="rounded=0;whiteSpace=wrap;html=1;" vertex="1" parent="WIyWlLk6GJQsqaUBKTNV-1">
          <mxGeometry x="200" y="150" width="120" height="60" as="geometry" />
        </mxCell>
        <mxCell id="pB7Ged0uvk6aYIBunuPW-6" value="" style="endArrow=classic;html=1;rounded=0;entryX=0;entryY=0.25;entryDx=0;entryDy=0;" edge="1" parent="WIyWlLk6GJQsqaUBKTNV-1" source="pB7Ged0uvk6aYIBunuPW-0" target="pB7Ged0uvk6aYIBunuPW-5">
          <mxGeometry width="50" height="50" relative="1" as="geometry">
            <mxPoint x="390" y="440" as="sourcePoint" />
            <mxPoint x="440" y="390" as="targetPoint" />
            <Array as="points">
              <mxPoint x="150" y="150" />
            </Array>
          </mxGeometry>
        </mxCell>
        <mxCell id="pB7Ged0uvk6aYIBunuPW-9" value="" style="endArrow=classic;html=1;rounded=0;exitX=1;exitY=0.5;exitDx=0;exitDy=0;entryX=0;entryY=0.5;entryDx=0;entryDy=0;" edge="1" parent="WIyWlLk6GJQsqaUBKTNV-1" source="pB7Ged0uvk6aYIBunuPW-5">
          <mxGeometry width="50" height="50" relative="1" as="geometry">
            <mxPoint x="330" y="185" as="sourcePoint" />
            <mxPoint x="420" y="180" as="targetPoint" />
          </mxGeometry>
        </mxCell>
        <mxCell id="pB7Ged0uvk6aYIBunuPW-18" value="Gestione Eventi" style="rounded=0;whiteSpace=wrap;html=1;" vertex="1" parent="WIyWlLk6GJQsqaUBKTNV-1">
          <mxGeometry x="840" y="310" width="120" height="60" as="geometry" />
        </mxCell>
        <mxCell id="pB7Ged0uvk6aYIBunuPW-19" value="" style="endArrow=classic;html=1;rounded=0;exitX=0.5;exitY=1;exitDx=0;exitDy=0;entryX=0.5;entryY=0;entryDx=0;entryDy=0;" edge="1" parent="WIyWlLk6GJQsqaUBKTNV-1" source="pB7Ged0uvk6aYIBunuPW-48">
          <mxGeometry width="50" height="50" relative="1" as="geometry">
            <mxPoint x="715" y="300" as="sourcePoint" />
            <mxPoint x="690" y="290" as="targetPoint" />
            <Array as="points" />
          </mxGeometry>
        </mxCell>
        <mxCell id="pB7Ged0uvk6aYIBunuPW-20" value="Ricerca" style="rounded=0;whiteSpace=wrap;html=1;" vertex="1" parent="WIyWlLk6GJQsqaUBKTNV-1">
          <mxGeometry x="420" y="150" width="120" height="60" as="geometry" />
        </mxCell>
        <mxCell id="pB7Ged0uvk6aYIBunuPW-24" value="Gestione Biglietti" style="rounded=0;whiteSpace=wrap;html=1;" vertex="1" parent="WIyWlLk6GJQsqaUBKTNV-1">
          <mxGeometry x="840" y="150" width="120" height="60" as="geometry" />
        </mxCell>
        <mxCell id="pB7Ged0uvk6aYIBunuPW-25" value="" style="endArrow=classic;html=1;rounded=0;exitX=1;exitY=0.5;exitDx=0;exitDy=0;" edge="1" parent="WIyWlLk6GJQsqaUBKTNV-1" source="pB7Ged0uvk6aYIBunuPW-48" target="pB7Ged0uvk6aYIBunuPW-55">
          <mxGeometry width="50" height="50" relative="1" as="geometry">
            <mxPoint x="830" y="180" as="sourcePoint" />
            <mxPoint x="730" y="130" as="targetPoint" />
          </mxGeometry>
        </mxCell>
        <mxCell id="pB7Ged0uvk6aYIBunuPW-27" value="Cliente (Non registrato)" style="swimlane;whiteSpace=wrap;html=1;" vertex="1" parent="WIyWlLk6GJQsqaUBKTNV-1">
          <mxGeometry x="30" y="510" width="200" height="90" as="geometry" />
        </mxCell>
        <mxCell id="pB7Ged0uvk6aYIBunuPW-31" value="&lt;div&gt;-Si puo&#39; registrare.&lt;/div&gt;&lt;div&gt;-Puo effettuare la ricerca e&amp;nbsp;&lt;/div&gt;&lt;div&gt;visualizzare ogni evento presente&lt;br&gt;&lt;/div&gt;" style="text;html=1;align=center;verticalAlign=middle;resizable=0;points=[];autosize=1;strokeColor=none;fillColor=none;" vertex="1" parent="pB7Ged0uvk6aYIBunuPW-27">
          <mxGeometry y="30" width="200" height="60" as="geometry" />
        </mxCell>
        <mxCell id="pB7Ged0uvk6aYIBunuPW-32" value="Home" style="swimlane;whiteSpace=wrap;html=1;" vertex="1" parent="WIyWlLk6GJQsqaUBKTNV-1">
          <mxGeometry x="250" y="510" width="200" height="90" as="geometry" />
        </mxCell>
        <mxCell id="pB7Ged0uvk6aYIBunuPW-33" value="&lt;div&gt;-Elementi presenti nella pagina:&lt;/div&gt;&lt;div&gt;Login, registrati, ricerca, eventi&amp;nbsp;&lt;/div&gt;&lt;div&gt;con la data piu&#39; vicina&lt;br&gt;&lt;/div&gt;" style="text;html=1;align=center;verticalAlign=middle;resizable=0;points=[];autosize=1;strokeColor=none;fillColor=none;" vertex="1" parent="pB7Ged0uvk6aYIBunuPW-32">
          <mxGeometry y="30" width="190" height="60" as="geometry" />
        </mxCell>
        <mxCell id="pB7Ged0uvk6aYIBunuPW-34" value="Ricerca" style="swimlane;whiteSpace=wrap;html=1;" vertex="1" parent="WIyWlLk6GJQsqaUBKTNV-1">
          <mxGeometry x="460" y="510" width="200" height="90" as="geometry" />
        </mxCell>
        <mxCell id="pB7Ged0uvk6aYIBunuPW-35" value="&lt;div&gt;-Far la ricerca per data ,&lt;/div&gt;&lt;div&gt;&amp;nbsp;artista , categoria o tutti.&lt;/div&gt;&lt;div&gt;-Risultato della ricerca.&lt;br&gt;&lt;/div&gt;" style="text;html=1;align=center;verticalAlign=middle;resizable=0;points=[];autosize=1;strokeColor=none;fillColor=none;" vertex="1" parent="pB7Ged0uvk6aYIBunuPW-34">
          <mxGeometry x="20" y="30" width="160" height="60" as="geometry" />
        </mxCell>
        <mxCell id="pB7Ged0uvk6aYIBunuPW-36" value="Acquisto" style="swimlane;whiteSpace=wrap;html=1;" vertex="1" parent="WIyWlLk6GJQsqaUBKTNV-1">
          <mxGeometry x="680" y="510" width="200" height="90" as="geometry" />
        </mxCell>
        <mxCell id="pB7Ged0uvk6aYIBunuPW-37" value="-" style="text;html=1;align=center;verticalAlign=middle;resizable=0;points=[];autosize=1;strokeColor=none;fillColor=none;" vertex="1" parent="WIyWlLk6GJQsqaUBKTNV-1">
          <mxGeometry x="725" y="558" width="30" height="30" as="geometry" />
        </mxCell>
        <mxCell id="pB7Ged0uvk6aYIBunuPW-38" value="-Acquisto del biglietto." style="text;html=1;align=center;verticalAlign=middle;resizable=0;points=[];autosize=1;strokeColor=none;fillColor=none;" vertex="1" parent="WIyWlLk6GJQsqaUBKTNV-1">
          <mxGeometry x="710" y="548" width="140" height="30" as="geometry" />
        </mxCell>
        <mxCell id="pB7Ged0uvk6aYIBunuPW-39" value="Crea eventi" style="swimlane;whiteSpace=wrap;html=1;" vertex="1" parent="WIyWlLk6GJQsqaUBKTNV-1">
          <mxGeometry x="890" y="510" width="200" height="90" as="geometry" />
        </mxCell>
        <mxCell id="pB7Ged0uvk6aYIBunuPW-40" value="&lt;div&gt;-Crea il post del nuovo evento.&lt;/div&gt;&lt;div&gt;-Modifica i suoi post.&lt;/div&gt;&lt;div&gt;-Elimina i suoi post.&lt;br&gt;&lt;/div&gt;" style="text;html=1;align=center;verticalAlign=middle;resizable=0;points=[];autosize=1;strokeColor=none;fillColor=none;" vertex="1" parent="pB7Ged0uvk6aYIBunuPW-39">
          <mxGeometry x="10" y="23" width="180" height="60" as="geometry" />
        </mxCell>
        <mxCell id="pB7Ged0uvk6aYIBunuPW-41" value="Admin" style="shape=umlActor;verticalLabelPosition=bottom;verticalAlign=top;html=1;outlineConnect=0;" vertex="1" parent="WIyWlLk6GJQsqaUBKTNV-1">
          <mxGeometry x="1280" y="-10" width="30" height="60" as="geometry" />
        </mxCell>
        <mxCell id="pB7Ged0uvk6aYIBunuPW-45" value="" style="endArrow=classic;html=1;rounded=0;entryX=1;entryY=0.5;entryDx=0;entryDy=0;" edge="1" parent="WIyWlLk6GJQsqaUBKTNV-1" source="pB7Ged0uvk6aYIBunuPW-41" target="pB7Ged0uvk6aYIBunuPW-60">
          <mxGeometry width="50" height="50" relative="1" as="geometry">
            <mxPoint x="1070" y="335" as="sourcePoint" />
            <mxPoint x="1170" y="279" as="targetPoint" />
          </mxGeometry>
        </mxCell>
        <mxCell id="pB7Ged0uvk6aYIBunuPW-47" value="&lt;h4 data-pm-slice=&quot;1 3 []&quot;&gt;&lt;span&gt;Identificazione dei Domini&lt;/span&gt;&lt;/h4&gt;&lt;ol start=&quot;1&quot; data-spread=&quot;false&quot;&gt;&lt;li&gt;&lt;p&gt;&lt;span&gt;&lt;strong&gt;Gestione Utenti&lt;/strong&gt;&lt;/span&gt;&lt;span&gt;: Registrazione, autenticazione e gestione dei profili utente.&lt;/span&gt;&lt;/p&gt;&lt;/li&gt;&lt;li&gt;&lt;p&gt;&lt;span&gt;&lt;strong&gt;Gestione Eventi&lt;/strong&gt;&lt;/span&gt;&lt;span&gt;: Creazione, modifica, pubblicazione e aggiornamento degli eventi.&lt;/span&gt;&lt;/p&gt;&lt;/li&gt;&lt;li&gt;&lt;p&gt;&lt;span&gt;&lt;strong&gt;Gestione Biglietti&lt;/strong&gt;&lt;/span&gt;&lt;span&gt;: Prenotazione, validazione e assegnazione dei biglietti.&lt;/span&gt;&lt;/p&gt;&lt;/li&gt;&lt;li&gt;&lt;p&gt;&lt;span&gt;&lt;strong&gt;Pagamenti&lt;/strong&gt;&lt;/span&gt;&lt;span&gt;: Elaborazione dei pagamenti e gestione dei rimborsi.&lt;/span&gt;&lt;/p&gt;&lt;/li&gt;&lt;li&gt;&lt;p&gt;&lt;span&gt;&lt;strong&gt;Notifiche&lt;/strong&gt;&lt;/span&gt;&lt;span&gt;: Invio di notifiche personalizzate agli utenti.&lt;/span&gt;&lt;/p&gt;&lt;/li&gt;&lt;li&gt;&lt;p&gt;&lt;span&gt;&lt;strong&gt;Personalizzazione&lt;/strong&gt;&lt;/span&gt;&lt;span&gt;: Generazione di suggerimenti personalizzati.&lt;/span&gt;&lt;/p&gt;&lt;/li&gt;&lt;li&gt;&lt;p&gt;&lt;span&gt;&lt;strong&gt;Analisi Statistiche&lt;/strong&gt;&lt;/span&gt;&lt;span&gt;: Raccolta e visualizzazione di dati per gli organizzatori.&lt;/span&gt;&lt;/p&gt;&lt;/li&gt;&lt;/ol&gt;" style="text;html=1;whiteSpace=wrap;overflow=hidden;rounded=0;" vertex="1" parent="WIyWlLk6GJQsqaUBKTNV-1">
          <mxGeometry x="5" y="650" width="510" height="240" as="geometry" />
        </mxCell>
        <mxCell id="pB7Ged0uvk6aYIBunuPW-48" value="Gestione Utenti" style="rounded=0;whiteSpace=wrap;html=1;" vertex="1" parent="WIyWlLk6GJQsqaUBKTNV-1">
          <mxGeometry x="630" y="150" width="120" height="60" as="geometry" />
        </mxCell>
        <mxCell id="pB7Ged0uvk6aYIBunuPW-49" value="" style="endArrow=classic;html=1;rounded=0;entryX=0.017;entryY=0.383;entryDx=0;entryDy=0;entryPerimeter=0;exitX=1;exitY=0.5;exitDx=0;exitDy=0;" edge="1" parent="WIyWlLk6GJQsqaUBKTNV-1" source="pB7Ged0uvk6aYIBunuPW-20" target="pB7Ged0uvk6aYIBunuPW-48">
          <mxGeometry width="50" height="50" relative="1" as="geometry">
            <mxPoint x="560" y="210" as="sourcePoint" />
            <mxPoint x="610" y="160" as="targetPoint" />
          </mxGeometry>
        </mxCell>
        <mxCell id="pB7Ged0uvk6aYIBunuPW-50" value="Pagamenti" style="rounded=0;whiteSpace=wrap;html=1;" vertex="1" parent="WIyWlLk6GJQsqaUBKTNV-1">
          <mxGeometry x="1050" y="150" width="120" height="60" as="geometry" />
        </mxCell>
        <mxCell id="pB7Ged0uvk6aYIBunuPW-51" value="" style="endArrow=classic;html=1;rounded=0;entryX=0.5;entryY=1;entryDx=0;entryDy=0;" edge="1" parent="WIyWlLk6GJQsqaUBKTNV-1" target="pB7Ged0uvk6aYIBunuPW-24">
          <mxGeometry width="50" height="50" relative="1" as="geometry">
            <mxPoint x="880" y="310" as="sourcePoint" />
            <mxPoint x="930" y="260" as="targetPoint" />
          </mxGeometry>
        </mxCell>
        <mxCell id="pB7Ged0uvk6aYIBunuPW-52" value="" style="endArrow=classic;html=1;rounded=0;entryX=0;entryY=0.5;entryDx=0;entryDy=0;" edge="1" parent="WIyWlLk6GJQsqaUBKTNV-1" target="pB7Ged0uvk6aYIBunuPW-50">
          <mxGeometry width="50" height="50" relative="1" as="geometry">
            <mxPoint x="960" y="190" as="sourcePoint" />
            <mxPoint x="1010" y="140" as="targetPoint" />
          </mxGeometry>
        </mxCell>
        <mxCell id="pB7Ged0uvk6aYIBunuPW-53" value="" style="endArrow=classic;html=1;rounded=0;" edge="1" parent="WIyWlLk6GJQsqaUBKTNV-1" target="pB7Ged0uvk6aYIBunuPW-54">
          <mxGeometry width="50" height="50" relative="1" as="geometry">
            <mxPoint x="970" y="350" as="sourcePoint" />
            <mxPoint x="620" y="490" as="targetPoint" />
          </mxGeometry>
        </mxCell>
        <mxCell id="pB7Ged0uvk6aYIBunuPW-54" value="Notifiche" style="rounded=0;whiteSpace=wrap;html=1;" vertex="1" parent="WIyWlLk6GJQsqaUBKTNV-1">
          <mxGeometry x="1050" y="320" width="120" height="60" as="geometry" />
        </mxCell>
        <mxCell id="pB7Ged0uvk6aYIBunuPW-56" style="edgeStyle=orthogonalEdgeStyle;rounded=0;orthogonalLoop=1;jettySize=auto;html=1;exitX=0.5;exitY=0.5;exitDx=0;exitDy=0;exitPerimeter=0;entryX=-0.008;entryY=0.383;entryDx=0;entryDy=0;entryPerimeter=0;" edge="1" parent="WIyWlLk6GJQsqaUBKTNV-1" source="pB7Ged0uvk6aYIBunuPW-55" target="pB7Ged0uvk6aYIBunuPW-24">
          <mxGeometry relative="1" as="geometry">
            <mxPoint x="800" y="170" as="targetPoint" />
          </mxGeometry>
        </mxCell>
        <mxCell id="pB7Ged0uvk6aYIBunuPW-55" value="Registrato" style="shape=umlActor;verticalLabelPosition=bottom;verticalAlign=top;html=1;outlineConnect=0;" vertex="1" parent="WIyWlLk6GJQsqaUBKTNV-1">
          <mxGeometry x="780" y="140" width="25" height="60" as="geometry" />
        </mxCell>
        <mxCell id="pB7Ged0uvk6aYIBunuPW-59" style="edgeStyle=orthogonalEdgeStyle;rounded=0;orthogonalLoop=1;jettySize=auto;html=1;entryX=0;entryY=0.25;entryDx=0;entryDy=0;" edge="1" parent="WIyWlLk6GJQsqaUBKTNV-1" source="pB7Ged0uvk6aYIBunuPW-57" target="pB7Ged0uvk6aYIBunuPW-18">
          <mxGeometry relative="1" as="geometry" />
        </mxCell>
        <mxCell id="pB7Ged0uvk6aYIBunuPW-57" value="Creator" style="shape=umlActor;verticalLabelPosition=bottom;verticalAlign=top;html=1;outlineConnect=0;" vertex="1" parent="WIyWlLk6GJQsqaUBKTNV-1">
          <mxGeometry x="680" y="290" width="30" height="60" as="geometry" />
        </mxCell>
        <mxCell id="pB7Ged0uvk6aYIBunuPW-60" value="Analisi Statistiche" style="rounded=0;whiteSpace=wrap;html=1;" vertex="1" parent="WIyWlLk6GJQsqaUBKTNV-1">
          <mxGeometry x="1050" y="-10" width="120" height="60" as="geometry" />
        </mxCell>
        <mxCell id="pB7Ged0uvk6aYIBunuPW-61" value="" style="endArrow=classic;html=1;rounded=0;entryX=0.5;entryY=1;entryDx=0;entryDy=0;" edge="1" parent="WIyWlLk6GJQsqaUBKTNV-1" target="pB7Ged0uvk6aYIBunuPW-60">
          <mxGeometry width="50" height="50" relative="1" as="geometry">
            <mxPoint x="1110" y="150" as="sourcePoint" />
            <mxPoint x="1160" y="100" as="targetPoint" />
          </mxGeometry>
        </mxCell>
        <mxCell id="pB7Ged0uvk6aYIBunuPW-63" value="" style="endArrow=classic;html=1;rounded=0;entryX=0;entryY=0.5;entryDx=0;entryDy=0;exitX=0.25;exitY=0.1;exitDx=0;exitDy=0;exitPerimeter=0;" edge="1" parent="WIyWlLk6GJQsqaUBKTNV-1" source="pB7Ged0uvk6aYIBunuPW-55" target="pB7Ged0uvk6aYIBunuPW-60">
          <mxGeometry width="50" height="50" relative="1" as="geometry">
            <mxPoint x="790" y="130" as="sourcePoint" />
            <mxPoint x="840" y="80" as="targetPoint" />
          </mxGeometry>
        </mxCell>
        <mxCell id="pB7Ged0uvk6aYIBunuPW-64" value="&lt;h4 data-pm-slice=&quot;1 5 []&quot;&gt;&lt;span&gt;Microservizi&lt;/span&gt;&lt;/h4&gt;&lt;p&gt;&lt;span&gt;&lt;strong&gt;1. User Management&lt;/strong&gt;&lt;/span&gt;&lt;/p&gt;&lt;ul data-spread=&quot;false&quot;&gt;&lt;li&gt;&lt;p&gt;&lt;span&gt;&lt;strong&gt;Funzionalità principali&lt;/strong&gt;&lt;/span&gt;&lt;span&gt;:&lt;/span&gt;&lt;/p&gt;&lt;ul data-spread=&quot;false&quot;&gt;&lt;li&gt;&lt;p&gt;&lt;span&gt;Registrazione e autenticazione degli utenti.&lt;/span&gt;&lt;/p&gt;&lt;/li&gt;&lt;li&gt;&lt;p&gt;&lt;span&gt;Gestione dei profili (es. aggiornamento delle informazioni personali).&lt;/span&gt;&lt;/p&gt;&lt;/li&gt;&lt;/ul&gt;&lt;/li&gt;&lt;li&gt;&lt;p&gt;&lt;span&gt;&lt;strong&gt;Relazioni&lt;/strong&gt;&lt;/span&gt;&lt;span&gt;:&lt;/span&gt;&lt;/p&gt;&lt;ul data-spread=&quot;false&quot;&gt;&lt;li&gt;&lt;p&gt;&lt;span&gt;Fornisce dati al microservizio &quot;Personalization&quot;.&lt;/span&gt;&lt;/p&gt;&lt;/li&gt;&lt;/ul&gt;&lt;/li&gt;&lt;/ul&gt;&lt;p&gt;&lt;span&gt;&lt;strong&gt;2. Event Management&lt;/strong&gt;&lt;/span&gt;&lt;/p&gt;&lt;ul data-spread=&quot;false&quot;&gt;&lt;li&gt;&lt;p&gt;&lt;span&gt;&lt;strong&gt;Funzionalità principali&lt;/strong&gt;&lt;/span&gt;&lt;span&gt;:&lt;/span&gt;&lt;/p&gt;&lt;ul data-spread=&quot;false&quot;&gt;&lt;li&gt;&lt;p&gt;&lt;span&gt;Creazione e modifica degli eventi.&lt;/span&gt;&lt;/p&gt;&lt;/li&gt;&lt;li&gt;&lt;p&gt;&lt;span&gt;Pubblicazione e gestione del catalogo eventi.&lt;/span&gt;&lt;/p&gt;&lt;/li&gt;&lt;/ul&gt;&lt;/li&gt;&lt;li&gt;&lt;p&gt;&lt;span&gt;&lt;strong&gt;Relazioni&lt;/strong&gt;&lt;/span&gt;&lt;span&gt;:&lt;/span&gt;&lt;/p&gt;&lt;ul data-spread=&quot;false&quot;&gt;&lt;li&gt;&lt;p&gt;&lt;span&gt;Comunica con &quot;Ticketing&quot; per verificare la disponibilità dei biglietti.&lt;/span&gt;&lt;/p&gt;&lt;/li&gt;&lt;li&gt;&lt;p&gt;&lt;span&gt;Fornisce dati al microservizio &quot;Personalization&quot;.&lt;/span&gt;&lt;/p&gt;&lt;/li&gt;&lt;/ul&gt;&lt;/li&gt;&lt;/ul&gt;&lt;p&gt;&lt;span&gt;&lt;strong&gt;3. Ticketing&lt;/strong&gt;&lt;/span&gt;&lt;/p&gt;&lt;ul data-spread=&quot;false&quot;&gt;&lt;li&gt;&lt;p&gt;&lt;span&gt;&lt;strong&gt;Funzionalità principali&lt;/strong&gt;&lt;/span&gt;&lt;span&gt;:&lt;/span&gt;&lt;/p&gt;&lt;ul data-spread=&quot;false&quot;&gt;&lt;li&gt;&lt;p&gt;&lt;span&gt;Gestione della prenotazione e validazione dei biglietti.&lt;/span&gt;&lt;/p&gt;&lt;/li&gt;&lt;li&gt;&lt;p&gt;&lt;span&gt;Verifica della disponibilità dei posti.&lt;/span&gt;&lt;/p&gt;&lt;/li&gt;&lt;/ul&gt;&lt;/li&gt;&lt;li&gt;&lt;p&gt;&lt;span&gt;&lt;strong&gt;Relazioni&lt;/strong&gt;&lt;/span&gt;&lt;span&gt;:&lt;/span&gt;&lt;/p&gt;&lt;ul data-spread=&quot;false&quot;&gt;&lt;li&gt;&lt;p&gt;&lt;span&gt;Si interfaccia con &quot;Payment&quot; per convalidare i pagamenti.&lt;/span&gt;&lt;/p&gt;&lt;/li&gt;&lt;li&gt;&lt;p&gt;&lt;span&gt;Comunica con &quot;Notification&quot; per informare gli utenti sull&#39;assegnazione dei biglietti.&lt;/span&gt;&lt;/p&gt;&lt;/li&gt;&lt;/ul&gt;&lt;/li&gt;&lt;/ul&gt;&lt;p&gt;&lt;span&gt;&lt;strong&gt;4. Payment&lt;/strong&gt;&lt;/span&gt;&lt;/p&gt;&lt;ul data-spread=&quot;false&quot;&gt;&lt;li&gt;&lt;p&gt;&lt;span&gt;&lt;strong&gt;Funzionalità principali&lt;/strong&gt;&lt;/span&gt;&lt;span&gt;:&lt;/span&gt;&lt;/p&gt;&lt;ul data-spread=&quot;false&quot;&gt;&lt;li&gt;&lt;p&gt;&lt;span&gt;Elaborazione dei pagamenti e gestione dei rimborsi.&lt;/span&gt;&lt;/p&gt;&lt;/li&gt;&lt;li&gt;&lt;p&gt;&lt;span&gt;Integrazione con gateway di pagamento esterni.&lt;/span&gt;&lt;/p&gt;&lt;/li&gt;&lt;/ul&gt;&lt;/li&gt;&lt;li&gt;&lt;p&gt;&lt;span&gt;&lt;strong&gt;Relazioni&lt;/strong&gt;&lt;/span&gt;&lt;span&gt;:&lt;/span&gt;&lt;/p&gt;&lt;ul data-spread=&quot;false&quot;&gt;&lt;li&gt;&lt;p&gt;&lt;span&gt;Comunica con &quot;Notification&quot; per confermare i pagamenti.&lt;/span&gt;&lt;/p&gt;&lt;/li&gt;&lt;li&gt;&lt;p&gt;&lt;span&gt;Fornisce conferme al microservizio &quot;Ticketing&quot;.&lt;/span&gt;&lt;/p&gt;&lt;/li&gt;&lt;/ul&gt;&lt;/li&gt;&lt;/ul&gt;&lt;p&gt;&lt;span&gt;&lt;strong&gt;5. Notification&lt;/strong&gt;&lt;/span&gt;&lt;/p&gt;&lt;ul data-spread=&quot;false&quot;&gt;&lt;li&gt;&lt;p&gt;&lt;span&gt;&lt;strong&gt;Funzionalità principali&lt;/strong&gt;&lt;/span&gt;&lt;span&gt;:&lt;/span&gt;&lt;/p&gt;&lt;ul data-spread=&quot;false&quot;&gt;&lt;li&gt;&lt;p&gt;&lt;span&gt;Invio di notifiche email e SMS su conferme di pagamento, aggiornamenti sugli eventi e altro.&lt;/span&gt;&lt;/p&gt;&lt;/li&gt;&lt;/ul&gt;&lt;/li&gt;&lt;li&gt;&lt;p&gt;&lt;span&gt;&lt;strong&gt;Relazioni&lt;/strong&gt;&lt;/span&gt;&lt;span&gt;:&lt;/span&gt;&lt;/p&gt;&lt;ul data-spread=&quot;false&quot;&gt;&lt;li&gt;&lt;p&gt;&lt;span&gt;Riceve input da &quot;Payment&quot;, &quot;Event Management&quot; e &quot;Ticketing&quot;.&lt;/span&gt;&lt;/p&gt;&lt;/li&gt;&lt;/ul&gt;&lt;/li&gt;&lt;/ul&gt;&lt;p&gt;&lt;span&gt;&lt;strong&gt;6. Personalization&lt;/strong&gt;&lt;/span&gt;&lt;/p&gt;&lt;ul data-spread=&quot;false&quot;&gt;&lt;li&gt;&lt;p&gt;&lt;span&gt;&lt;strong&gt;Funzionalità principali&lt;/strong&gt;&lt;/span&gt;&lt;span&gt;:&lt;/span&gt;&lt;/p&gt;&lt;ul data-spread=&quot;false&quot;&gt;&lt;li&gt;&lt;p&gt;&lt;span&gt;Generazione di suggerimenti personalizzati basati su interessi e comportamento degli utenti.&lt;/span&gt;&lt;/p&gt;&lt;/li&gt;&lt;/ul&gt;&lt;/li&gt;&lt;li&gt;&lt;p&gt;&lt;span&gt;&lt;strong&gt;Relazioni&lt;/strong&gt;&lt;/span&gt;&lt;span&gt;:&lt;/span&gt;&lt;/p&gt;&lt;ul data-spread=&quot;false&quot;&gt;&lt;li&gt;&lt;p&gt;&lt;span&gt;Utilizza dati da &quot;User Management&quot; e &quot;Event Management&quot;.&lt;/span&gt;&lt;/p&gt;&lt;/li&gt;&lt;/ul&gt;&lt;/li&gt;&lt;/ul&gt;&lt;p&gt;&lt;span&gt;&lt;strong&gt;7. Analytics&lt;/strong&gt;&lt;/span&gt;&lt;/p&gt;&lt;ul data-spread=&quot;false&quot;&gt;&lt;li&gt;&lt;p&gt;&lt;span&gt;&lt;strong&gt;Funzionalità principali&lt;/strong&gt;&lt;/span&gt;&lt;span&gt;:&lt;/span&gt;&lt;/p&gt;&lt;ul data-spread=&quot;false&quot;&gt;&lt;li&gt;&lt;p&gt;&lt;span&gt;Raccolta e visualizzazione di statistiche sugli eventi.&lt;/span&gt;&lt;/p&gt;&lt;/li&gt;&lt;li&gt;&lt;p&gt;&lt;span&gt;Generazione di report per gli organizzatori.&lt;/span&gt;&lt;/p&gt;&lt;/li&gt;&lt;/ul&gt;&lt;/li&gt;&lt;li&gt;&lt;p&gt;&lt;span&gt;&lt;strong&gt;Relazioni&lt;/strong&gt;&lt;/span&gt;&lt;span&gt;:&lt;/span&gt;&lt;/p&gt;&lt;ul data-spread=&quot;false&quot;&gt;&lt;li&gt;&lt;p&gt;&lt;span&gt;Riceve dati da &quot;Event Management&quot; e &quot;Ticketing&quot;.&lt;/span&gt;&lt;/p&gt;&lt;/li&gt;&lt;/ul&gt;&lt;/li&gt;&lt;/ul&gt;" style="text;html=1;whiteSpace=wrap;overflow=hidden;rounded=0;" vertex="1" parent="WIyWlLk6GJQsqaUBKTNV-1">
          <mxGeometry x="590" y="670" width="650" height="1190" as="geometry" />
        </mxCell>
        <mxCell id="pB7Ged0uvk6aYIBunuPW-65" value="&lt;h4 data-pm-slice=&quot;1 3 []&quot;&gt;&lt;span&gt;Dettaglio dei Flussi Principali&lt;/span&gt;&lt;/h4&gt;&lt;p&gt;&lt;span&gt;&lt;strong&gt;1. Creazione di un evento&lt;/strong&gt;&lt;/span&gt;&lt;/p&gt;&lt;ul data-spread=&quot;false&quot;&gt;&lt;li&gt;&lt;p&gt;&lt;span&gt;L&#39;organizzatore invia una richiesta a &quot;Event Management&quot;.&lt;/span&gt;&lt;/p&gt;&lt;/li&gt;&lt;li&gt;&lt;p&gt;&lt;span&gt;&quot;Event Management&quot; salva i dettagli dell&#39;evento e aggiorna il catalogo.&lt;/span&gt;&lt;/p&gt;&lt;/li&gt;&lt;li&gt;&lt;p&gt;&lt;span&gt;Una notifica di conferma viene inviata tramite &quot;Notification&quot;.&lt;/span&gt;&lt;/p&gt;&lt;/li&gt;&lt;/ul&gt;&lt;p&gt;&lt;span&gt;&lt;strong&gt;2. Registrazione e acquisto di un biglietto&lt;/strong&gt;&lt;/span&gt;&lt;/p&gt;&lt;ul data-spread=&quot;false&quot;&gt;&lt;li&gt;&lt;p&gt;&lt;span&gt;L&#39;utente visualizza un evento tramite &quot;Event Management&quot;.&lt;/span&gt;&lt;/p&gt;&lt;/li&gt;&lt;li&gt;&lt;p&gt;&lt;span&gt;Effettua una richiesta di prenotazione tramite &quot;Ticketing&quot;.&lt;/span&gt;&lt;/p&gt;&lt;/li&gt;&lt;li&gt;&lt;p&gt;&lt;span&gt;&quot;Ticketing&quot; verifica la disponibilità e invia una richiesta di pagamento a &quot;Payment&quot;.&lt;/span&gt;&lt;/p&gt;&lt;/li&gt;&lt;li&gt;&lt;p&gt;&lt;span&gt;Dopo la conferma del pagamento, &quot;Ticketing&quot; assegna il biglietto e notifica l&#39;utente tramite &quot;Notification&quot;.&lt;/span&gt;&lt;/p&gt;&lt;/li&gt;&lt;/ul&gt;&lt;p&gt;&lt;span&gt;&lt;strong&gt;3. Pagamento e invio di notifiche&lt;/strong&gt;&lt;/span&gt;&lt;/p&gt;&lt;ul data-spread=&quot;false&quot;&gt;&lt;li&gt;&lt;p&gt;&lt;span&gt;&quot;Payment&quot; elabora il pagamento e aggiorna lo stato.&lt;/span&gt;&lt;/p&gt;&lt;/li&gt;&lt;li&gt;&lt;p&gt;&lt;span&gt;Una notifica di conferma viene inviata tramite &quot;Notification&quot;.&lt;/span&gt;&lt;/p&gt;&lt;/li&gt;&lt;/ul&gt;&lt;p&gt;&lt;span&gt;&lt;strong&gt;4. Personalizzazione dei suggerimenti&lt;/strong&gt;&lt;/span&gt;&lt;/p&gt;&lt;ul data-spread=&quot;false&quot;&gt;&lt;li&gt;&lt;p&gt;&lt;span&gt;&quot;Personalization&quot; raccoglie dati da &quot;User Management&quot; (interessi utenti) e &quot;Event Management&quot; (catalogo eventi).&lt;/span&gt;&lt;/p&gt;&lt;/li&gt;&lt;li&gt;&lt;p&gt;&lt;span&gt;Suggerisce eventi pertinenti agli utenti.&lt;/span&gt;&lt;/p&gt;&lt;/li&gt;&lt;/ul&gt;" style="text;html=1;whiteSpace=wrap;overflow=hidden;rounded=0;" vertex="1" parent="WIyWlLk6GJQsqaUBKTNV-1">
          <mxGeometry x="30" y="870" width="560" height="480" as="geometry" />
        </mxCell>
        <mxCell id="pB7Ged0uvk6aYIBunuPW-66" value="User Management" style="swimlane;fontStyle=0;childLayout=stackLayout;horizontal=1;startSize=30;horizontalStack=0;resizeParent=1;resizeParentMax=0;resizeLast=0;collapsible=1;marginBottom=0;whiteSpace=wrap;html=1;" vertex="1" parent="WIyWlLk6GJQsqaUBKTNV-1">
          <mxGeometry x="1120" y="640" width="151" height="180" as="geometry" />
        </mxCell>
        <mxCell id="pB7Ged0uvk6aYIBunuPW-67" value="Reg:Registrazione dei dati degli utenti." style="text;strokeColor=none;fillColor=none;align=left;verticalAlign=middle;spacingLeft=4;spacingRight=4;overflow=hidden;points=[[0,0.5],[1,0.5]];portConstraint=eastwest;rotatable=0;whiteSpace=wrap;html=1;" vertex="1" parent="pB7Ged0uvk6aYIBunuPW-66">
          <mxGeometry y="30" width="151" height="30" as="geometry" />
        </mxCell>
        <mxCell id="pB7Ged0uvk6aYIBunuPW-68" value="Mod:Modifica del profilo personale." style="text;strokeColor=none;fillColor=none;align=left;verticalAlign=middle;spacingLeft=4;spacingRight=4;overflow=hidden;points=[[0,0.5],[1,0.5]];portConstraint=eastwest;rotatable=0;whiteSpace=wrap;html=1;" vertex="1" parent="pB7Ged0uvk6aYIBunuPW-66">
          <mxGeometry y="60" width="151" height="30" as="geometry" />
        </mxCell>
        <mxCell id="pB7Ged0uvk6aYIBunuPW-69" value="&lt;div&gt;El:Eliminare il proprio profilo&lt;/div&gt;&lt;div&gt;&lt;br&gt;&lt;/div&gt;" style="text;strokeColor=none;fillColor=none;align=left;verticalAlign=middle;spacingLeft=4;spacingRight=4;overflow=hidden;points=[[0,0.5],[1,0.5]];portConstraint=eastwest;rotatable=0;whiteSpace=wrap;html=1;" vertex="1" parent="pB7Ged0uvk6aYIBunuPW-66">
          <mxGeometry y="90" width="151" height="40" as="geometry" />
        </mxCell>
        <mxCell id="pB7Ged0uvk6aYIBunuPW-70" value="Ver:Autentificazione del profilo tramite email di conferma." style="text;strokeColor=none;fillColor=none;align=left;verticalAlign=middle;spacingLeft=4;spacingRight=4;overflow=hidden;points=[[0,0.5],[1,0.5]];portConstraint=eastwest;rotatable=0;whiteSpace=wrap;html=1;" vertex="1" parent="pB7Ged0uvk6aYIBunuPW-66">
          <mxGeometry y="130" width="151" height="50" as="geometry" />
        </mxCell>
        <mxCell id="pB7Ged0uvk6aYIBunuPW-71" value="Personalizzazione" style="swimlane;fontStyle=0;childLayout=stackLayout;horizontal=1;startSize=30;horizontalStack=0;resizeParent=1;resizeParentMax=0;resizeLast=0;collapsible=1;marginBottom=0;whiteSpace=wrap;html=1;" vertex="1" parent="WIyWlLk6GJQsqaUBKTNV-1">
          <mxGeometry x="1470" y="650" width="190" height="120" as="geometry" />
        </mxCell>
        <mxCell id="pB7Ged0uvk6aYIBunuPW-72" value="RegLog:Regista eventi cercati e acquistati dall&#39;utente in un DB" style="text;strokeColor=none;fillColor=none;align=left;verticalAlign=middle;spacingLeft=4;spacingRight=4;overflow=hidden;points=[[0,0.5],[1,0.5]];portConstraint=eastwest;rotatable=0;whiteSpace=wrap;html=1;" vertex="1" parent="pB7Ged0uvk6aYIBunuPW-71">
          <mxGeometry y="30" width="190" height="40" as="geometry" />
        </mxCell>
        <mxCell id="pB7Ged0uvk6aYIBunuPW-73" value="SendEV:Propone eventi simili rispetto a cio&#39; che ha acquistato" style="text;strokeColor=none;fillColor=none;align=left;verticalAlign=middle;spacingLeft=4;spacingRight=4;overflow=hidden;points=[[0,0.5],[1,0.5]];portConstraint=eastwest;rotatable=0;whiteSpace=wrap;html=1;" vertex="1" parent="pB7Ged0uvk6aYIBunuPW-71">
          <mxGeometry y="70" width="190" height="50" as="geometry" />
        </mxCell>
        <mxCell id="pB7Ged0uvk6aYIBunuPW-75" style="edgeStyle=orthogonalEdgeStyle;rounded=0;orthogonalLoop=1;jettySize=auto;html=1;exitX=1;exitY=0.5;exitDx=0;exitDy=0;" edge="1" parent="WIyWlLk6GJQsqaUBKTNV-1" source="pB7Ged0uvk6aYIBunuPW-67" target="pB7Ged0uvk6aYIBunuPW-72">
          <mxGeometry relative="1" as="geometry" />
        </mxCell>
        <mxCell id="pB7Ged0uvk6aYIBunuPW-81" style="edgeStyle=orthogonalEdgeStyle;rounded=0;orthogonalLoop=1;jettySize=auto;html=1;" edge="1" parent="WIyWlLk6GJQsqaUBKTNV-1" source="pB7Ged0uvk6aYIBunuPW-77" target="pB7Ged0uvk6aYIBunuPW-84">
          <mxGeometry relative="1" as="geometry" />
        </mxCell>
        <mxCell id="pB7Ged0uvk6aYIBunuPW-86" style="edgeStyle=orthogonalEdgeStyle;rounded=0;orthogonalLoop=1;jettySize=auto;html=1;" edge="1" parent="WIyWlLk6GJQsqaUBKTNV-1" source="pB7Ged0uvk6aYIBunuPW-77" target="pB7Ged0uvk6aYIBunuPW-72">
          <mxGeometry relative="1" as="geometry">
            <Array as="points">
              <mxPoint x="1380" y="860" />
              <mxPoint x="1380" y="690" />
            </Array>
          </mxGeometry>
        </mxCell>
        <mxCell id="pB7Ged0uvk6aYIBunuPW-76" value="Event Management" style="swimlane;fontStyle=0;childLayout=stackLayout;horizontal=1;startSize=30;horizontalStack=0;resizeParent=1;resizeParentMax=0;resizeLast=0;collapsible=1;marginBottom=0;whiteSpace=wrap;html=1;" vertex="1" parent="WIyWlLk6GJQsqaUBKTNV-1">
          <mxGeometry x="1120" y="820" width="140" height="150" as="geometry" />
        </mxCell>
        <mxCell id="pB7Ged0uvk6aYIBunuPW-77" value="Creazione dell&#39;evento" style="text;strokeColor=none;fillColor=none;align=left;verticalAlign=middle;spacingLeft=4;spacingRight=4;overflow=hidden;points=[[0,0.5],[1,0.5]];portConstraint=eastwest;rotatable=0;whiteSpace=wrap;html=1;" vertex="1" parent="pB7Ged0uvk6aYIBunuPW-76">
          <mxGeometry y="30" width="140" height="30" as="geometry" />
        </mxCell>
        <mxCell id="pB7Ged0uvk6aYIBunuPW-78" value="Modifica dell&#39;evento" style="text;strokeColor=none;fillColor=none;align=left;verticalAlign=middle;spacingLeft=4;spacingRight=4;overflow=hidden;points=[[0,0.5],[1,0.5]];portConstraint=eastwest;rotatable=0;whiteSpace=wrap;html=1;" vertex="1" parent="pB7Ged0uvk6aYIBunuPW-76">
          <mxGeometry y="60" width="140" height="30" as="geometry" />
        </mxCell>
        <mxCell id="pB7Ged0uvk6aYIBunuPW-79" value="Elimina evento" style="text;strokeColor=none;fillColor=none;align=left;verticalAlign=middle;spacingLeft=4;spacingRight=4;overflow=hidden;points=[[0,0.5],[1,0.5]];portConstraint=eastwest;rotatable=0;whiteSpace=wrap;html=1;" vertex="1" parent="pB7Ged0uvk6aYIBunuPW-76">
          <mxGeometry y="90" width="140" height="30" as="geometry" />
        </mxCell>
        <mxCell id="pB7Ged0uvk6aYIBunuPW-80" value="Pubblica evento" style="text;strokeColor=none;fillColor=none;align=left;verticalAlign=middle;spacingLeft=4;spacingRight=4;overflow=hidden;points=[[0,0.5],[1,0.5]];portConstraint=eastwest;rotatable=0;whiteSpace=wrap;html=1;" vertex="1" parent="pB7Ged0uvk6aYIBunuPW-76">
          <mxGeometry y="120" width="140" height="30" as="geometry" />
        </mxCell>
        <mxCell id="pB7Ged0uvk6aYIBunuPW-82" value="Ticketing" style="swimlane;fontStyle=0;childLayout=stackLayout;horizontal=1;startSize=30;horizontalStack=0;resizeParent=1;resizeParentMax=0;resizeLast=0;collapsible=1;marginBottom=0;whiteSpace=wrap;html=1;" vertex="1" parent="WIyWlLk6GJQsqaUBKTNV-1">
          <mxGeometry x="1495" y="870" width="140" height="150" as="geometry" />
        </mxCell>
        <mxCell id="pB7Ged0uvk6aYIBunuPW-83" value="Prenota evento" style="text;strokeColor=none;fillColor=none;align=left;verticalAlign=middle;spacingLeft=4;spacingRight=4;overflow=hidden;points=[[0,0.5],[1,0.5]];portConstraint=eastwest;rotatable=0;whiteSpace=wrap;html=1;" vertex="1" parent="pB7Ged0uvk6aYIBunuPW-82">
          <mxGeometry y="30" width="140" height="30" as="geometry" />
        </mxCell>
        <mxCell id="pB7Ged0uvk6aYIBunuPW-84" value="Verifica disponibilità" style="text;strokeColor=none;fillColor=none;align=left;verticalAlign=middle;spacingLeft=4;spacingRight=4;overflow=hidden;points=[[0,0.5],[1,0.5]];portConstraint=eastwest;rotatable=0;whiteSpace=wrap;html=1;" vertex="1" parent="pB7Ged0uvk6aYIBunuPW-82">
          <mxGeometry y="60" width="140" height="30" as="geometry" />
        </mxCell>
        <mxCell id="pB7Ged0uvk6aYIBunuPW-85" value="Verifica validità del biglietto" style="text;strokeColor=none;fillColor=none;align=left;verticalAlign=middle;spacingLeft=4;spacingRight=4;overflow=hidden;points=[[0,0.5],[1,0.5]];portConstraint=eastwest;rotatable=0;whiteSpace=wrap;html=1;" vertex="1" parent="pB7Ged0uvk6aYIBunuPW-82">
          <mxGeometry y="90" width="140" height="30" as="geometry" />
        </mxCell>
        <mxCell id="pB7Ged0uvk6aYIBunuPW-106" value="CongPost: Congela posto." style="text;strokeColor=none;fillColor=none;align=left;verticalAlign=middle;spacingLeft=4;spacingRight=4;overflow=hidden;points=[[0,0.5],[1,0.5]];portConstraint=eastwest;rotatable=0;whiteSpace=wrap;html=1;" vertex="1" parent="pB7Ged0uvk6aYIBunuPW-82">
          <mxGeometry y="120" width="140" height="30" as="geometry" />
        </mxCell>
        <mxCell id="pB7Ged0uvk6aYIBunuPW-92" style="edgeStyle=orthogonalEdgeStyle;rounded=0;orthogonalLoop=1;jettySize=auto;html=1;" edge="1" parent="WIyWlLk6GJQsqaUBKTNV-1" source="pB7Ged0uvk6aYIBunuPW-89" target="pB7Ged0uvk6aYIBunuPW-83">
          <mxGeometry relative="1" as="geometry">
            <Array as="points">
              <mxPoint x="1420" y="1055" />
              <mxPoint x="1420" y="915" />
            </Array>
          </mxGeometry>
        </mxCell>
        <mxCell id="pB7Ged0uvk6aYIBunuPW-88" value="Payment" style="swimlane;fontStyle=0;childLayout=stackLayout;horizontal=1;startSize=30;horizontalStack=0;resizeParent=1;resizeParentMax=0;resizeLast=0;collapsible=1;marginBottom=0;whiteSpace=wrap;html=1;" vertex="1" parent="WIyWlLk6GJQsqaUBKTNV-1">
          <mxGeometry x="1125.5" y="1000" width="140" height="200" as="geometry" />
        </mxCell>
        <mxCell id="pB7Ged0uvk6aYIBunuPW-89" value="Paga: Richiesta dei dati e verifica il pagamento" style="text;strokeColor=none;fillColor=none;align=left;verticalAlign=middle;spacingLeft=4;spacingRight=4;overflow=hidden;points=[[0,0.5],[1,0.5]];portConstraint=eastwest;rotatable=0;whiteSpace=wrap;html=1;" vertex="1" parent="pB7Ged0uvk6aYIBunuPW-88">
          <mxGeometry y="30" width="140" height="50" as="geometry" />
        </mxCell>
        <mxCell id="pB7Ged0uvk6aYIBunuPW-90" value="Rimborsi:richiesta di annullare la prenotazione e restituisce il pagamento" style="text;strokeColor=none;fillColor=none;align=left;verticalAlign=middle;spacingLeft=4;spacingRight=4;overflow=hidden;points=[[0,0.5],[1,0.5]];portConstraint=eastwest;rotatable=0;whiteSpace=wrap;html=1;" vertex="1" parent="pB7Ged0uvk6aYIBunuPW-88">
          <mxGeometry y="80" width="140" height="70" as="geometry" />
        </mxCell>
        <mxCell id="pB7Ged0uvk6aYIBunuPW-91" value="Estero: gestione dei pagamenti dell&#39;estero" style="text;strokeColor=none;fillColor=none;align=left;verticalAlign=middle;spacingLeft=4;spacingRight=4;overflow=hidden;points=[[0,0.5],[1,0.5]];portConstraint=eastwest;rotatable=0;whiteSpace=wrap;html=1;" vertex="1" parent="pB7Ged0uvk6aYIBunuPW-88">
          <mxGeometry y="150" width="140" height="50" as="geometry" />
        </mxCell>
        <mxCell id="pB7Ged0uvk6aYIBunuPW-93" value="Notification" style="swimlane;fontStyle=0;childLayout=stackLayout;horizontal=1;startSize=30;horizontalStack=0;resizeParent=1;resizeParentMax=0;resizeLast=0;collapsible=1;marginBottom=0;whiteSpace=wrap;html=1;" vertex="1" parent="WIyWlLk6GJQsqaUBKTNV-1">
          <mxGeometry x="1495" y="1130" width="140" height="240" as="geometry" />
        </mxCell>
        <mxCell id="pB7Ged0uvk6aYIBunuPW-94" value="Getpagamento:invio del pagamento " style="text;strokeColor=none;fillColor=none;align=left;verticalAlign=middle;spacingLeft=4;spacingRight=4;overflow=hidden;points=[[0,0.5],[1,0.5]];portConstraint=eastwest;rotatable=0;whiteSpace=wrap;html=1;" vertex="1" parent="pB7Ged0uvk6aYIBunuPW-93">
          <mxGeometry y="30" width="140" height="60" as="geometry" />
        </mxCell>
        <mxCell id="pB7Ged0uvk6aYIBunuPW-95" value="Getaggiorna: invio di aggiornamenti eventi" style="text;strokeColor=none;fillColor=none;align=left;verticalAlign=middle;spacingLeft=4;spacingRight=4;overflow=hidden;points=[[0,0.5],[1,0.5]];portConstraint=eastwest;rotatable=0;whiteSpace=wrap;html=1;" vertex="1" parent="pB7Ged0uvk6aYIBunuPW-93">
          <mxGeometry y="90" width="140" height="70" as="geometry" />
        </mxCell>
        <mxCell id="pB7Ged0uvk6aYIBunuPW-96" value="Getnuovo: invio nuovo evento" style="text;strokeColor=none;fillColor=none;align=left;verticalAlign=middle;spacingLeft=4;spacingRight=4;overflow=hidden;points=[[0,0.5],[1,0.5]];portConstraint=eastwest;rotatable=0;whiteSpace=wrap;html=1;" vertex="1" parent="pB7Ged0uvk6aYIBunuPW-93">
          <mxGeometry y="160" width="140" height="80" as="geometry" />
        </mxCell>
        <mxCell id="pB7Ged0uvk6aYIBunuPW-97" style="edgeStyle=orthogonalEdgeStyle;rounded=0;orthogonalLoop=1;jettySize=auto;html=1;" edge="1" parent="WIyWlLk6GJQsqaUBKTNV-1" source="pB7Ged0uvk6aYIBunuPW-89" target="pB7Ged0uvk6aYIBunuPW-94">
          <mxGeometry relative="1" as="geometry">
            <Array as="points">
              <mxPoint x="1380" y="1060" />
              <mxPoint x="1380" y="1190" />
            </Array>
          </mxGeometry>
        </mxCell>
        <mxCell id="pB7Ged0uvk6aYIBunuPW-98" style="edgeStyle=orthogonalEdgeStyle;rounded=0;orthogonalLoop=1;jettySize=auto;html=1;" edge="1" parent="WIyWlLk6GJQsqaUBKTNV-1" source="pB7Ged0uvk6aYIBunuPW-78" target="pB7Ged0uvk6aYIBunuPW-95">
          <mxGeometry relative="1" as="geometry">
            <Array as="points">
              <mxPoint x="1350" y="895" />
              <mxPoint x="1350" y="1255" />
            </Array>
          </mxGeometry>
        </mxCell>
        <mxCell id="pB7Ged0uvk6aYIBunuPW-99" style="edgeStyle=orthogonalEdgeStyle;rounded=0;orthogonalLoop=1;jettySize=auto;html=1;" edge="1" parent="WIyWlLk6GJQsqaUBKTNV-1" source="pB7Ged0uvk6aYIBunuPW-77" target="pB7Ged0uvk6aYIBunuPW-96">
          <mxGeometry relative="1" as="geometry">
            <Array as="points">
              <mxPoint x="1310" y="870" />
              <mxPoint x="1310" y="1330" />
            </Array>
          </mxGeometry>
        </mxCell>
        <mxCell id="pB7Ged0uvk6aYIBunuPW-100" value="Analystcs" style="swimlane;fontStyle=0;childLayout=stackLayout;horizontal=1;startSize=30;horizontalStack=0;resizeParent=1;resizeParentMax=0;resizeLast=0;collapsible=1;marginBottom=0;whiteSpace=wrap;html=1;" vertex="1" parent="WIyWlLk6GJQsqaUBKTNV-1">
          <mxGeometry x="1495" y="1400" width="140" height="120" as="geometry" />
        </mxCell>
        <mxCell id="pB7Ged0uvk6aYIBunuPW-101" value="Raccolta: raccoglie i dati" style="text;strokeColor=none;fillColor=none;align=left;verticalAlign=middle;spacingLeft=4;spacingRight=4;overflow=hidden;points=[[0,0.5],[1,0.5]];portConstraint=eastwest;rotatable=0;whiteSpace=wrap;html=1;" vertex="1" parent="pB7Ged0uvk6aYIBunuPW-100">
          <mxGeometry y="30" width="140" height="30" as="geometry" />
        </mxCell>
        <mxCell id="pB7Ged0uvk6aYIBunuPW-102" value="Get: visualizza dati" style="text;strokeColor=none;fillColor=none;align=left;verticalAlign=middle;spacingLeft=4;spacingRight=4;overflow=hidden;points=[[0,0.5],[1,0.5]];portConstraint=eastwest;rotatable=0;whiteSpace=wrap;html=1;" vertex="1" parent="pB7Ged0uvk6aYIBunuPW-100">
          <mxGeometry y="60" width="140" height="30" as="geometry" />
        </mxCell>
        <mxCell id="pB7Ged0uvk6aYIBunuPW-103" value="Report:scarica dati " style="text;strokeColor=none;fillColor=none;align=left;verticalAlign=middle;spacingLeft=4;spacingRight=4;overflow=hidden;points=[[0,0.5],[1,0.5]];portConstraint=eastwest;rotatable=0;whiteSpace=wrap;html=1;" vertex="1" parent="pB7Ged0uvk6aYIBunuPW-100">
          <mxGeometry y="90" width="140" height="30" as="geometry" />
        </mxCell>
        <mxCell id="pB7Ged0uvk6aYIBunuPW-104" style="edgeStyle=orthogonalEdgeStyle;rounded=0;orthogonalLoop=1;jettySize=auto;html=1;" edge="1" parent="WIyWlLk6GJQsqaUBKTNV-1" source="pB7Ged0uvk6aYIBunuPW-89" target="pB7Ged0uvk6aYIBunuPW-101">
          <mxGeometry relative="1" as="geometry">
            <Array as="points">
              <mxPoint x="1290" y="1040" />
              <mxPoint x="1290" y="1445" />
            </Array>
          </mxGeometry>
        </mxCell>
        <mxCell id="pB7Ged0uvk6aYIBunuPW-105" style="edgeStyle=orthogonalEdgeStyle;rounded=0;orthogonalLoop=1;jettySize=auto;html=1;" edge="1" parent="WIyWlLk6GJQsqaUBKTNV-1" source="pB7Ged0uvk6aYIBunuPW-80" target="pB7Ged0uvk6aYIBunuPW-101">
          <mxGeometry relative="1" as="geometry">
            <Array as="points">
              <mxPoint x="1450" y="955" />
              <mxPoint x="1450" y="1450" />
            </Array>
          </mxGeometry>
        </mxCell>
      </root>
    </mxGraphModel>
  </diagram>
</mxfile>
